<svg width="24" height="24" viewBox="0 0 24 24" fill="none" xmlns="http://www.w3.org/2000/svg">
<path d="M8.4502 14.3125C8.45138 14.2442 8.42109 14.1634 8.42169 14.1034C8.42446 11.1833 8.42485 8.26323 8.42287 5.34312C8.42228 4.90421 8.45435 4.37859 8.62303 3.9777C8.93959 3.22283 9.62141 2.70196 10.4202 2.55229C10.6091 2.51666 10.9458 2.49923 11.4305 2.50003C12.9291 2.5024 14.428 2.5028 15.9271 2.50121C16.461 2.50062 16.8993 2.66751 17.2758 3.04406C18.1299 3.89851 18.9834 4.75316 19.8362 5.60801C20.2615 6.03326 20.3173 6.57907 20.3185 7.23535C20.3232 9.56985 20.3234 11.9046 20.3191 14.2394C20.3185 14.502 20.2532 14.7609 20.2157 15.0246C20.2003 15.1331 20.0916 15.3602 19.8897 15.7058C19.7729 15.9058 19.5733 16.1069 19.291 16.3093C18.8729 16.609 18.3603 16.76 17.7534 16.7624C15.5004 16.7703 13.2475 16.7741 10.9945 16.7737C10.7398 16.7737 10.4303 16.7303 10.1868 16.6561C9.30782 16.3904 8.7432 15.807 8.49296 14.9058C8.46089 14.7902 8.44663 14.5924 8.4502 14.3125ZM18.5177 14.3368C18.5308 14.2189 18.5371 14.1005 18.5367 13.9817C18.5302 11.6571 18.548 9.33129 18.5439 7.0061C18.5439 6.89523 18.5142 6.8103 18.4548 6.75131C17.6554 5.95189 16.8609 5.15683 16.0714 4.36612C16.0326 4.32731 15.9799 4.30533 15.9247 4.30495C14.3167 4.30376 12.6997 4.30416 11.0735 4.30614C10.5841 4.30673 10.2219 4.38275 10.2225 4.94222C10.2248 8.02902 10.226 11.1158 10.226 14.2026C10.226 14.6463 10.3014 14.9682 10.8045 14.9676C13.1952 14.966 15.5857 14.9644 17.9761 14.9628C18.3817 14.9622 18.4791 14.6825 18.5177 14.3368Z" fill="white"/>
<path d="M3.92274 20.143C3.79802 19.8983 3.68518 19.4903 3.68458 19.2106C3.67904 16.0319 3.67686 12.8528 3.67805 9.67339C3.67805 9.53263 3.68933 9.35267 3.722 9.2137C3.9568 8.22581 4.55784 7.59962 5.52514 7.33513C5.60789 7.31216 5.6952 7.29791 5.78706 7.29237C6.24141 7.26445 6.6916 7.27336 7.14773 7.26445C7.15875 7.2643 7.16969 7.26633 7.17991 7.27044C7.19014 7.27455 7.19945 7.28065 7.20729 7.28838C7.21514 7.29612 7.22137 7.30534 7.22562 7.3155C7.22988 7.32567 7.23207 7.33658 7.23207 7.3476L7.23088 8.97375C7.23088 8.99281 7.22331 9.01109 7.20983 9.02457C7.19635 9.03805 7.17807 9.04562 7.15901 9.04562C6.77257 9.04562 6.40394 9.04621 6.05313 9.0474C5.93989 9.0478 5.82824 9.08561 5.71816 9.16084C5.47406 9.32832 5.44793 9.58965 5.44793 9.87176C5.44714 12.9107 5.44734 15.9495 5.44852 18.9884C5.44852 19.3561 5.61126 19.7344 6.05017 19.7332C8.30073 19.7281 10.5515 19.7251 12.8024 19.7243C13.2093 19.7243 13.5419 19.7671 13.704 19.4042C13.8353 19.1114 13.7705 18.4391 13.7735 18.0524C13.7737 18.0289 13.7831 18.0064 13.7998 17.9898C13.8165 17.9732 13.8391 17.9639 13.8626 17.9639L15.4674 17.9615C15.4782 17.9615 15.4889 17.9637 15.4989 17.9679C15.5089 17.9721 15.518 17.9783 15.5255 17.986C15.5331 17.9937 15.5391 18.0029 15.5431 18.013C15.547 18.0231 15.549 18.0339 15.5487 18.0447C15.5408 18.4022 15.539 18.7663 15.5434 19.1369C15.5535 19.9702 15.0801 20.7233 14.3912 21.1657C14.1233 21.3374 13.5935 21.4989 13.2111 21.4989C10.8318 21.5001 8.45257 21.5003 6.07333 21.4995C5.09277 21.4989 4.33136 20.9448 3.92274 20.143Z" fill="white"/>
</svg>
