<svg width="24" height="24" viewBox="0 0 24 24" fill="none" xmlns="http://www.w3.org/2000/svg">
<path d="M8.45356 4.88449C8.44881 3.51768 9.59 2.50237 10.9467 2.50296C13.4555 2.50415 15.9639 2.50534 18.4719 2.50652C19.0284 2.50692 19.4217 2.53522 19.6517 2.59143C20.5981 2.8218 21.3183 3.56577 21.4662 4.58464C21.4883 4.73704 21.4994 4.90804 21.4994 5.09764C21.4998 7.63889 21.5 10.1799 21.5 12.7208C21.5 13.2088 21.4707 13.5639 21.4121 13.786C21.1004 14.9729 19.9889 15.5969 18.7789 15.5975C16.1778 15.5987 13.5768 15.5997 10.9758 15.6005C10.9014 15.6005 10.8278 15.5923 10.7549 15.5761C10.6021 15.5421 10.4493 15.5064 10.2966 15.4692C9.66996 15.3161 9.18862 15.0037 8.85256 14.5323C8.74094 14.3763 8.63842 14.1586 8.545 13.8792C8.47375 13.6678 8.45416 13.3941 8.45534 13.1679C8.46366 10.4065 8.46306 7.64542 8.45356 4.88449ZM19.1398 13.7919C19.6392 13.7913 19.7294 13.3899 19.7294 12.9862C19.7306 10.4164 19.7306 7.8469 19.7294 5.27755C19.7288 4.73189 19.6713 4.30677 19.0359 4.30677C16.2996 4.30598 13.5634 4.30637 10.8274 4.30796C10.5863 4.30796 10.4157 4.39741 10.3156 4.57633C10.2594 4.67727 10.2312 4.84787 10.2312 5.08814C10.2312 7.72439 10.2314 10.3606 10.2318 12.9969C10.2318 13.4386 10.2865 13.7889 10.7977 13.7913C12.1403 13.7976 14.9211 13.7978 19.1398 13.7919Z" fill="white"/>
<path d="M2.76842 20.1884C2.63008 19.9325 2.50717 19.5061 2.50658 19.2081C2.50183 16.4424 2.49965 13.6767 2.50005 10.911C2.50064 9.43735 3.64361 8.46063 5.0686 8.46123C5.7435 8.46162 6.42472 8.46083 7.11228 8.45885C7.21401 8.45885 7.26468 8.50972 7.26428 8.61145L7.2625 10.078C7.2625 10.1746 7.21421 10.2229 7.11763 10.2229C6.41503 10.2221 5.70668 10.2231 4.9926 10.2258C4.51008 10.2282 4.26882 10.4715 4.26882 10.9556C4.26843 13.6373 4.26981 16.3191 4.27298 19.0009C4.27357 19.3654 4.43923 19.7312 4.87207 19.73C7.51425 19.7233 10.1562 19.7205 12.798 19.7217C13.2226 19.7217 13.5319 19.7715 13.7053 19.4094C13.7484 19.3191 13.7708 19.182 13.7724 18.9979C13.7783 18.3206 13.7797 17.6437 13.7765 16.9673C13.7765 16.9138 13.7789 16.8731 13.7836 16.845C13.7916 16.7971 13.8197 16.7731 13.868 16.7731L15.4746 16.7707C15.4954 16.7707 15.5154 16.779 15.5301 16.7937C15.5448 16.8084 15.553 16.8283 15.553 16.8491C15.553 17.6154 15.5469 18.3871 15.5346 19.1641C15.5239 19.8157 15.2896 20.3687 14.8316 20.8231C14.4789 21.1722 14.1702 21.2642 13.7652 21.4162C13.599 21.478 13.3864 21.4958 13.2101 21.4964C10.4317 21.4988 7.65339 21.4944 4.87504 21.4833C4.78242 21.4829 4.68979 21.48 4.59717 21.4744C4.2807 21.4548 3.7867 21.2595 3.58779 21.1176C3.24263 20.8718 2.9695 20.562 2.76842 20.1884Z" fill="white"/>
</svg>
