<svg width="24" height="24" viewBox="0 0 24 24" fill="none" xmlns="http://www.w3.org/2000/svg">
<path d="M5.1278 20.1869C4.98989 19.9307 4.86565 19.5027 4.86565 19.2055C4.8609 15.398 4.85872 11.5901 4.85912 7.78184C4.85951 7.23497 4.89003 6.84879 4.95066 6.6233C5.19497 5.72037 5.99447 5.02192 6.94912 4.90779C7.14349 4.88461 7.33668 4.85429 7.53225 4.8537C8.028 4.85211 8.52276 4.8529 9.01653 4.85607C9.0348 4.85625 9.05273 4.85119 9.06821 4.8415C9.0837 4.83181 9.09608 4.81789 9.10391 4.80139C9.17881 4.64624 9.2115 4.46197 9.26738 4.32822C9.61274 3.50197 10.247 2.88436 11.1143 2.61984C11.3948 2.53425 11.8733 2.47421 12.2086 2.51106C12.6812 2.56278 13.1353 2.65432 13.574 2.94024C14.0955 3.27986 14.4726 3.7445 14.7052 4.33417C14.769 4.49625 14.8251 4.64902 14.8734 4.79247C14.8796 4.8107 14.8914 4.82653 14.9071 4.83772C14.9227 4.84892 14.9415 4.85492 14.9608 4.85489C15.6444 4.85191 16.3393 4.81744 17.0009 4.90303C17.8711 5.01598 18.582 5.5254 18.9333 6.33382C19.0261 6.54662 19.076 6.72594 19.0831 6.87177C19.0962 7.13748 19.1396 7.41151 19.1396 7.66593C19.1412 11.3839 19.1414 15.1018 19.1402 18.8197C19.1402 18.9097 19.1226 19.0985 19.0873 19.3862C19.0596 19.6133 19.0195 19.7974 18.9672 19.9384C18.7039 20.6482 18.1041 21.2046 17.3795 21.4067C17.1655 21.4665 16.8108 21.4966 16.3155 21.497C11.5632 21.501 8.54693 21.501 7.26654 21.497C6.30595 21.4941 5.55281 20.9769 5.1278 20.1869ZM12.8678 5.46477C12.8678 5.23207 12.7754 5.00891 12.6108 4.84437C12.4463 4.67983 12.2231 4.58739 11.9904 4.58739C11.7577 4.58739 11.5346 4.67983 11.37 4.84437C11.2055 5.00891 11.1131 5.23207 11.1131 5.46477C11.1131 5.69746 11.2055 5.92062 11.37 6.08516C11.5346 6.2497 11.7577 6.34214 11.9904 6.34214C12.2231 6.34214 12.4463 6.2497 12.6108 6.08516C12.7754 5.92062 12.8678 5.69746 12.8678 5.46477ZM16.1532 6.72971C16.1211 7.27598 16.2727 8.01307 15.6604 8.33228C15.517 8.40718 15.389 8.44482 15.2764 8.44522C13.1068 8.4468 10.9371 8.4468 8.76747 8.44522C8.58874 8.44522 8.42329 8.39826 8.27112 8.30434C7.74981 7.98454 7.8045 7.25518 7.82471 6.74992C7.8252 6.73833 7.8233 6.72677 7.81913 6.71595C7.81496 6.70513 7.80861 6.69529 7.80047 6.68704C7.79232 6.67878 7.78257 6.67229 7.77181 6.66798C7.76105 6.66366 7.74951 6.6616 7.73792 6.66194C7.18926 6.67502 6.63169 6.6132 6.6311 7.36217C6.63031 11.2358 6.63011 15.1095 6.6305 18.9832C6.6305 19.3642 6.80408 19.728 7.23147 19.7274C10.4231 19.7227 13.615 19.7169 16.8071 19.7102C17.216 19.7096 17.3284 19.3571 17.3284 19.0201C17.33 15.1622 17.33 11.3044 17.3284 7.44658C17.328 7.21436 17.3038 7.05307 17.2559 6.96272C17.0645 6.60071 16.5699 6.65421 16.2132 6.67026C16.1977 6.67098 16.1829 6.67745 16.1718 6.68843C16.1607 6.69941 16.1541 6.71412 16.1532 6.72971Z" fill="white"/>
</svg>
