<svg width="24" height="24" viewBox="0 0 24 24" fill="none" xmlns="http://www.w3.org/2000/svg">
<path d="M4.71633 5.46716C5.52489 5.46597 6.31702 5.46578 7.09273 5.46657C7.12121 5.46655 7.14921 5.45955 7.17427 5.44619C7.19933 5.43284 7.22067 5.41353 7.23639 5.38999C7.68995 4.71124 8.13499 4.05703 8.57153 3.42736C8.97877 2.83964 9.66088 2.50601 10.3786 2.50364C12.0412 2.4981 13.1359 2.49889 13.6627 2.50601C14.194 2.51254 14.6321 2.69539 15.056 3.00112C15.2466 3.13825 15.4247 3.36147 15.5565 3.55915C15.9495 4.14964 16.3537 4.75972 16.7693 5.38939C16.7846 5.41275 16.8055 5.43193 16.8299 5.44519C16.8544 5.45846 16.8817 5.4654 16.9094 5.46538C17.6637 5.46776 18.4331 5.46736 19.2175 5.46419C19.7138 5.46182 20.1359 5.66129 20.2707 6.17064C20.3059 6.30362 20.3051 6.43858 20.2683 6.57552C20.1051 7.18698 19.6533 7.3069 19.0816 7.27187C19.0546 7.27004 19.0279 7.27833 19.0067 7.29513C18.9855 7.31192 18.9714 7.33602 18.967 7.3627C18.9065 7.73611 18.9272 8.14395 18.8881 8.52508C18.8305 9.08905 18.8091 9.65183 18.7604 10.217C18.7165 10.7269 18.6886 11.2357 18.6453 11.7457C18.6069 12.2 18.5766 12.6547 18.5544 13.1099C18.5479 13.2411 18.5135 13.3853 18.504 13.526C18.4042 15.0796 18.2926 16.635 18.1697 18.1868C18.1306 18.6795 18.1217 19.2696 18.0213 19.6852C17.7649 20.7478 16.8215 21.4947 15.7108 21.497C13.1977 21.501 10.6845 21.501 8.1714 21.497C7.94858 21.4966 7.69331 21.4375 7.40559 21.3195C6.86853 21.0995 6.45673 20.7372 6.17019 20.2325C6.06274 20.0432 5.9541 19.6543 5.93095 19.3836C5.89929 19.014 5.86743 18.6445 5.83537 18.2753C5.81222 18.0069 5.79975 17.5136 5.75701 17.1366C5.68814 16.5204 5.67093 15.8995 5.61631 15.2815C5.59692 15.0642 5.5801 14.8038 5.56585 14.5002C5.55398 14.239 5.53597 13.9782 5.51183 13.7178C5.48491 13.4281 5.46137 13.1382 5.44118 12.8481C5.41031 12.407 5.34679 11.8104 5.32245 11.2885C5.2993 10.7964 5.23578 10.3049 5.21084 9.80975C5.17701 9.13357 5.09746 8.47462 5.07549 7.8026C5.07074 7.66131 5.03868 7.51171 5.03097 7.36864C5.0303 7.35441 5.02677 7.34046 5.0206 7.32763C5.01443 7.31479 5.00575 7.30332 4.99506 7.29391C4.98437 7.28449 4.9719 7.27732 4.95838 7.27282C4.94487 7.26832 4.93059 7.26659 4.91639 7.26772C4.67774 7.28711 4.44186 7.26119 4.20875 7.18995C3.90302 7.09674 3.6804 6.62479 3.70534 6.32915C3.73066 6.02322 3.86147 5.79149 4.09774 5.63398C4.242 5.5384 4.53408 5.46716 4.71633 5.46716ZM10.0616 4.40867L9.40858 5.35852C9.40141 5.36888 9.39722 5.38101 9.39647 5.39358C9.39571 5.40615 9.39842 5.41869 9.4043 5.42983C9.41018 5.44097 9.419 5.45029 9.4298 5.45677C9.4406 5.46324 9.45297 5.46663 9.46557 5.46657L14.5829 5.46597C14.6264 5.46597 14.6407 5.44559 14.6256 5.40483C14.6155 5.37693 14.6078 5.34071 14.5894 5.31222C14.4449 5.09177 14.2975 4.8739 14.1471 4.6586C14.0165 4.47101 13.915 4.30953 13.7227 4.30953C12.5623 4.31072 11.4041 4.31092 10.248 4.31013C10.2113 4.31013 10.1751 4.31911 10.1426 4.33628C10.1101 4.35346 10.0823 4.37831 10.0616 4.40867ZM7.61515 18.4664C7.64958 18.8683 7.57478 19.4311 7.99093 19.6413C8.10016 19.6963 8.30102 19.7238 8.59349 19.7238C10.9139 19.7234 13.2343 19.7234 15.5547 19.7238C16.4499 19.7244 16.3223 19.1099 16.3858 18.4646C16.4327 17.985 16.457 17.589 16.4838 17.1485C16.5212 16.5204 16.596 15.8348 16.6126 15.1716C16.6144 15.0986 16.6435 15.0214 16.6494 14.9437C16.6909 14.3916 16.7194 13.8401 16.7628 13.288C16.8004 12.8075 16.8307 12.3264 16.8536 11.8448C16.8566 11.7937 16.8815 11.7415 16.8857 11.6857C16.9201 11.1819 16.9492 10.6777 16.9729 10.1731C16.9747 10.1345 17.0002 10.0882 17.0026 10.0531C17.0366 9.55725 17.0655 9.06095 17.0893 8.56426C17.0923 8.51024 17.1207 8.4574 17.1237 8.40575C17.1447 8.04877 17.1665 7.69139 17.189 7.33361C17.1895 7.32622 17.1885 7.31881 17.186 7.31184C17.1835 7.30487 17.1796 7.29849 17.1745 7.29309C17.1694 7.28769 17.1633 7.28339 17.1565 7.28045C17.1497 7.27752 17.1424 7.27601 17.135 7.27603H6.87901C6.87078 7.27601 6.86263 7.27769 6.85507 7.28096C6.84751 7.28422 6.8407 7.28902 6.83508 7.29503C6.82945 7.30105 6.82513 7.30816 6.82237 7.31592C6.81961 7.32368 6.81848 7.33193 6.81906 7.34014C6.84557 7.72483 6.86773 8.11466 6.88554 8.50964C6.89029 8.61531 6.9176 8.72277 6.92413 8.81656C6.95659 9.27091 6.98251 9.72565 7.0019 10.1808C7.00546 10.2627 7.03396 10.3512 7.0399 10.439C7.07116 10.8787 7.09669 11.3188 7.11648 11.7593C7.12123 11.8638 7.14972 11.9754 7.15744 12.0864C7.1891 12.5459 7.21582 13.0056 7.23758 13.4655C7.24114 13.5397 7.26786 13.624 7.2738 13.7047C7.30625 14.1785 7.33356 14.6526 7.35572 15.1271C7.35928 15.2049 7.386 15.2832 7.39193 15.3664C7.42359 15.8199 7.44971 16.2739 7.4703 16.7282C7.47326 16.7905 7.49404 16.8499 7.49879 16.9182C7.53401 17.4224 7.56607 17.9268 7.59496 18.4314C7.59536 18.4365 7.59714 18.4409 7.60031 18.4445C7.60426 18.4488 7.60782 18.4528 7.61099 18.4563C7.61376 18.4591 7.61515 18.4625 7.61515 18.4664Z" fill="white"/>
</svg>
