<svg width="24" height="24" viewBox="0 0 24 24" fill="none" xmlns="http://www.w3.org/2000/svg">
<path d="M8.65139 12.1125C8.66622 12.1162 8.67981 12.1211 8.6934 12.1273C8.71565 12.136 8.72677 12.1533 8.72553 12.1767C8.71935 12.367 8.87258 12.3942 8.97514 12.4869C9.93032 13.3457 10.8892 14.1995 11.8518 15.0485C12.1694 15.329 12.3733 15.5501 12.4659 15.7132C12.8589 16.4114 12.4783 17.2047 11.7703 17.4766C11.1289 17.7225 10.694 17.4247 10.1935 16.9687C8.32146 15.261 6.4457 13.5582 4.56623 11.8592C3.84088 11.203 3.79516 10.338 4.52916 9.67447C7.33539 7.14009 9.27912 5.39036 10.3603 4.42653C10.9325 3.91743 11.5305 3.86183 12.1558 4.26095C12.5364 4.50438 12.7168 5.13458 12.5549 5.53494C12.4548 5.78208 12.3065 5.99585 12.1113 6.17502C10.9732 7.22411 9.82282 8.27815 8.66251 9.33837C8.65757 9.3429 8.6536 9.34839 8.65085 9.35451C8.6481 9.36062 8.64662 9.36723 8.64651 9.37393C8.64639 9.38064 8.64764 9.3873 8.65018 9.39351C8.65272 9.39971 8.65649 9.40533 8.66128 9.41003C8.72306 9.47305 8.80585 9.50395 8.90841 9.50271C10.3949 9.49777 11.8815 9.49777 13.368 9.50395C14.3281 9.50765 15.1313 9.59539 16.1989 9.99451C17.038 10.3096 18.0327 11.0313 18.6209 11.7517C19.5279 12.8613 19.9863 14.1167 19.9974 15.5168C20.0048 16.6289 19.9962 17.741 19.9727 18.8531C19.9616 19.3894 19.6959 19.8837 19.1312 19.9726C18.4553 20.0777 17.9919 19.8997 17.7423 19.4376C17.6187 19.209 17.5532 18.7864 17.5458 18.1685C17.5211 16.0308 17.9178 13.573 15.5205 12.4449C14.9608 12.1817 14.4035 12.0482 13.8511 12.0445C12.2559 12.0346 10.6594 12.0309 9.06287 12.0334C8.92695 12.0334 8.79102 12.042 8.6551 12.0593C8.64889 12.0602 8.64316 12.0631 8.63887 12.0677C8.63458 12.0722 8.632 12.0781 8.63157 12.0844C8.63113 12.0906 8.63287 12.0968 8.63648 12.102C8.64009 12.1071 8.64536 12.1108 8.65139 12.1125Z" fill="white"/>
</svg>
